<svg width="22" height="23" viewBox="0 0 22 23" fill="none" xmlns="http://www.w3.org/2000/svg">
<path d="M9.70075 18.7154L11.3333 13.9423C11.5139 13.4144 11.6042 13.1504 11.8035 12.9748C12.0028 12.7993 12.276 12.7431 12.8226 12.6306L17.7636 11.6139L17.7636 11.6139C20.2083 11.1108 21.4306 10.8593 21.5147 10.1418C21.5988 9.42434 20.4677 8.89698 18.2057 7.84226L3.81446 1.13218C2.03822 0.303995 1.15011 -0.1101 0.659319 0.322175C0.168529 0.75445 0.467162 1.68775 1.06443 3.55434L5.90352 18.6777C6.66415 21.0548 7.04447 22.2434 7.76681 22.2506C8.48915 22.2578 8.89302 21.077 9.70075 18.7154Z" fill="white"/>
</svg>
