<svg width="34" height="16" viewBox="0 0 34 16" fill="none" xmlns="http://www.w3.org/2000/svg">
<path d="M1 7C0.447715 7 4.82823e-08 7.44772 0 8C-4.82823e-08 8.55228 0.447715 9 1 9L1 7ZM33.7071 8.70711C34.0976 8.31659 34.0976 7.68342 33.7071 7.2929L27.3431 0.928934C26.9526 0.53841 26.3195 0.53841 25.9289 0.928934C25.5384 1.31946 25.5384 1.95262 25.9289 2.34315L31.5858 8L25.9289 13.6569C25.5384 14.0474 25.5384 14.6805 25.9289 15.0711C26.3195 15.4616 26.9526 15.4616 27.3431 15.0711L33.7071 8.70711ZM1 9L33 9L33 7L1 7L1 9Z" fill="#045387"/>
</svg>
