<svg width="202" height="61" viewBox="0 0 202 61" fill="none" xmlns="http://www.w3.org/2000/svg">
<g clip-path="url(#clip0_307_270)">
<path d="M88.9508 52.3381C85.8017 52.3803 82.676 51.7882 79.7578 50.5965C77.0919 49.4994 74.6699 47.8791 72.633 45.8302C70.6697 43.8391 69.1209 41.4739 68.0775 38.8732C65.9295 33.4388 65.9524 27.3796 68.1413 21.9618C69.1909 19.3752 70.7392 17.0231 72.6968 15.0415C74.7043 13.0442 77.0816 11.4623 79.694 10.3851C82.5039 9.21703 85.5189 8.63094 88.559 8.6619C90.7099 8.64624 92.8536 8.91121 94.9367 9.45018C96.8476 9.95405 98.6853 10.7059 100.403 11.6867C102.051 12.6345 103.564 13.7998 104.904 15.1515C106.123 16.3752 107.188 17.7451 108.075 19.2303C108.099 19.271 108.114 19.3161 108.12 19.3629C108.126 19.4097 108.123 19.4573 108.11 19.5027C108.097 19.5482 108.075 19.5905 108.046 19.6272C108.016 19.6639 107.98 19.6942 107.938 19.7161L101.424 23.2817C101.347 23.322 101.258 23.3311 101.175 23.3072C101.092 23.2833 101.021 23.2283 100.977 23.1534C99.77 21.1227 98.059 19.4423 96.0119 18.2771C93.7426 17.0653 91.2001 16.4653 88.6319 16.5355C86.7078 16.5191 84.8008 16.8997 83.0287 17.6538C81.3576 18.3734 79.832 19.3956 78.5278 20.6694C77.2452 21.9293 76.226 23.4345 75.5303 25.0966C74.815 26.8049 74.4523 28.6417 74.4643 30.4954C74.4425 32.3826 74.8053 34.2543 75.5303 35.995C76.2238 37.6557 77.2433 39.1583 78.5278 40.4131C79.8377 41.699 81.3853 42.7142 83.0833 43.4012C84.9311 44.1446 86.9062 44.5152 88.8962 44.492C91.6641 44.6282 94.3959 43.8144 96.6439 42.184C98.8918 40.5537 100.523 38.2034 101.269 35.5184C101.284 35.4666 101.288 35.412 101.279 35.3587C101.27 35.3054 101.248 35.2549 101.217 35.2113C101.185 35.1678 101.143 35.1322 101.095 35.1076C101.048 35.0829 100.995 35.0698 100.941 35.0693H97.0414C96.952 35.0693 96.8662 35.0335 96.803 34.9699C96.7398 34.9063 96.7043 34.8201 96.7043 34.7301V27.6631C96.7031 27.6178 96.7109 27.5727 96.7273 27.5305C96.7437 27.4883 96.7683 27.4498 96.7997 27.4173C96.8312 27.3849 96.8687 27.3591 96.9102 27.3415C96.9518 27.3238 96.9963 27.3148 97.0414 27.3148H109.715C109.807 27.3148 109.895 27.3515 109.96 27.4168C110.025 27.4821 110.061 27.5707 110.061 27.6631V30.5413C110.072 33.4011 109.569 36.2394 108.576 38.919C107.633 41.4933 106.193 43.8546 104.339 45.8669C102.458 47.8838 100.189 49.4959 97.67 50.6057C94.9172 51.794 91.946 52.3844 88.9508 52.3381Z" fill="white"/>
<path d="M130.269 52.3381C125.943 52.3323 121.777 50.6973 118.589 47.7551C116.928 46.2081 115.598 44.3368 114.68 42.2554C113.657 39.9342 113.15 37.4158 113.195 34.8768C113.147 32.3175 113.641 29.7773 114.644 27.4248C115.554 25.3527 116.864 23.4832 118.498 21.9252C120.084 20.4412 121.94 19.2801 123.965 18.5062C126.003 17.7324 128.163 17.335 130.342 17.333C132.531 17.3035 134.702 17.7278 136.72 18.5796C138.295 19.2388 139.732 20.1903 140.957 21.3844C141.005 21.4287 141.064 21.458 141.129 21.4689C141.193 21.4797 141.259 21.4715 141.319 21.4453C141.379 21.4191 141.43 21.376 141.466 21.3213C141.502 21.2666 141.521 21.2025 141.521 21.1369V17.7363C141.528 17.6472 141.569 17.5641 141.635 17.5044C141.701 17.4447 141.788 17.4128 141.877 17.4155H149.166C149.211 17.4155 149.255 17.4245 149.297 17.4421C149.338 17.4597 149.376 17.4856 149.407 17.518C149.439 17.5505 149.463 17.589 149.48 17.6312C149.496 17.6734 149.504 17.7185 149.503 17.7638V51.9623C149.504 52.0076 149.496 52.0527 149.48 52.0949C149.463 52.1371 149.439 52.1756 149.407 52.208C149.376 52.2405 149.338 52.2663 149.297 52.2839C149.255 52.3015 149.211 52.3106 149.166 52.3106H141.877C141.787 52.3082 141.701 52.2705 141.638 52.2054C141.575 52.1403 141.54 52.0531 141.54 51.9623V48.2959C141.539 48.2292 141.519 48.1642 141.482 48.109C141.445 48.0538 141.392 48.0108 141.331 47.9853C141.27 47.9599 141.203 47.9532 141.138 47.966C141.073 47.9789 141.013 48.0107 140.966 48.0575C139.75 49.3367 138.294 50.3615 136.683 51.0732C134.659 51.9477 132.472 52.3789 130.269 52.3381ZM131.572 44.9411C132.992 44.9588 134.4 44.694 135.718 44.162C136.943 43.6648 138.053 42.9191 138.979 41.9713C139.892 41.0313 140.627 39.9318 141.148 38.7265C141.685 37.4703 141.958 36.1159 141.95 34.7485C141.953 33.3992 141.68 32.0638 141.148 30.8254C140.631 29.6261 139.896 28.5348 138.979 27.6081C138.047 26.6775 136.937 25.945 135.718 25.4541C133.062 24.4033 130.11 24.4033 127.454 25.4541C126.214 25.9456 125.077 26.667 124.101 27.5806C123.153 28.4816 122.397 29.5668 121.878 30.7704C121.342 32.0269 121.069 33.3811 121.076 34.7485C121.069 36.1247 121.342 37.4879 121.878 38.754C122.394 39.9755 123.15 41.0793 124.101 41.9988C125.07 42.9298 126.209 43.6642 127.454 44.162C128.765 44.6788 130.164 44.9341 131.572 44.9136V44.9411Z" fill="white"/>
<path d="M154.441 28.0114H161.821C161.91 28.0114 161.996 28.0471 162.059 28.1107C162.122 28.1743 162.158 28.2606 162.158 28.3506V51.9348C162.159 51.9801 162.151 52.0252 162.135 52.0674C162.119 52.1096 162.094 52.1481 162.063 52.1805C162.031 52.213 161.994 52.2388 161.952 52.2564C161.91 52.274 161.866 52.2831 161.821 52.2831H154.441C154.349 52.2831 154.261 52.2464 154.196 52.1811C154.131 52.1157 154.095 52.0272 154.095 51.9348V28.3506C154.097 28.2598 154.135 28.1735 154.199 28.1102C154.264 28.0468 154.351 28.0114 154.441 28.0114Z" fill="white"/>
<path d="M182.731 52.3381C178.405 52.3323 174.238 50.6973 171.05 47.7551C169.389 46.2081 168.059 44.3368 167.142 42.2555C166.111 39.9202 165.604 37.3854 165.657 34.831C165.607 32.2707 166.104 29.7295 167.114 27.379C168 25.3378 169.288 23.4988 170.901 21.9736C172.514 20.4484 174.419 19.2688 176.499 18.5062C178.537 17.7307 180.697 17.3332 182.876 17.333C185.065 17.3027 187.236 17.7271 189.254 18.5796C190.829 19.2389 192.266 20.1903 193.491 21.3844C193.539 21.4287 193.598 21.4581 193.663 21.4689C193.727 21.4797 193.793 21.4715 193.853 21.4453C193.913 21.4191 193.964 21.376 194 21.3213C194.036 21.2666 194.055 21.2025 194.055 21.1369V17.7363C194.055 17.6439 194.092 17.5553 194.157 17.49C194.222 17.4247 194.31 17.388 194.402 17.388H201.69C201.782 17.388 201.87 17.4247 201.935 17.49C202 17.5553 202.037 17.6439 202.037 17.7363V51.9348C202.037 52.0272 202 52.1158 201.935 52.1811C201.87 52.2464 201.782 52.2831 201.69 52.2831H194.402C194.31 52.2831 194.222 52.2464 194.157 52.1811C194.092 52.1158 194.055 52.0272 194.055 51.9348V48.2684C194.055 48.2017 194.035 48.1367 193.998 48.0815C193.961 48.0263 193.908 47.9833 193.847 47.9578C193.786 47.9324 193.718 47.9257 193.653 47.9386C193.588 47.9514 193.529 47.9832 193.482 48.0301C192.267 49.3112 190.812 50.3364 189.199 51.0457C187.16 51.9387 184.954 52.3795 182.731 52.3381ZM184.033 44.9411C185.456 44.9581 186.867 44.6933 188.188 44.162C189.412 43.6625 190.522 42.9171 191.45 41.9713C192.356 41.0279 193.087 39.929 193.609 38.7265C194.15 37.4716 194.423 36.1163 194.411 34.7485C194.419 33.3988 194.146 32.0624 193.609 30.8254C193.092 29.6284 192.36 28.5376 191.45 27.6081C190.515 26.6796 189.406 25.9474 188.188 25.4541C185.529 24.4028 182.574 24.4028 179.915 25.4541C178.675 25.9457 177.538 26.667 176.562 27.5806C175.615 28.4817 174.858 29.5668 174.339 30.7704C173.806 32.0276 173.536 33.3817 173.547 34.7485C173.536 36.1241 173.806 37.4872 174.339 38.754C174.855 39.9756 175.611 41.0794 176.562 41.9988C177.532 42.9298 178.67 43.6643 179.915 44.162C181.227 44.677 182.625 44.9322 184.033 44.9136V44.9411Z" fill="white"/>
<path d="M158.14 25.5091C160.374 25.5091 162.185 23.687 162.185 21.4394C162.185 19.1917 160.374 17.3696 158.14 17.3696C155.906 17.3696 154.095 19.1917 154.095 21.4394C154.095 23.687 155.906 25.5091 158.14 25.5091Z" fill="white"/>
<path d="M30.3305 1.64823e-05C22.3471 -0.0083356 14.684 3.15781 9.01074 8.80858C12.8829 11.7325 22.5132 12.09 27.8887 14.9682C39.2775 21.0727 39.1864 33.7494 39.1864 33.7494C39.1864 33.7494 35.0864 21.8335 19.4246 19.2854C19.862 19.3679 27.3876 20.8069 34.0022 29.313C36.7346 32.8352 38.4382 37.0533 38.9222 41.4947C39.5983 48.0014 38.499 54.5705 35.7424 60.4959C43.165 59.1088 49.8062 54.9858 54.3672 48.9334C58.9282 42.881 61.0809 35.3345 60.4042 27.77C59.7274 20.2054 56.27 13.1669 50.7081 8.03104C45.1462 2.89521 37.88 0.031496 30.3305 1.64823e-05Z" fill="white"/>
<path d="M35.5876 34.831C35.321 34.2129 34.9157 33.6653 34.4036 33.2312C33.8914 32.797 33.2863 32.4881 32.6356 32.3286C23.4244 30.0646 10.1952 34.391 8.03589 9.82602C4.07234 14.1382 1.43085 19.51 0.428842 25.2961C-0.573163 31.0821 0.106955 37.0362 2.38746 42.4428C4.66796 47.8493 8.45183 52.4784 13.2843 55.7736C18.1169 59.0688 23.7924 60.89 29.629 61.0184C33.6105 55.1429 39.5782 43.997 35.5876 34.831Z" fill="white"/>
</g>
<defs>
<clipPath id="clip0_307_270">
<rect width="202" height="61" fill="white"/>
</clipPath>
</defs>
</svg>
