<svg width="116" height="49" viewBox="0 0 116 49" fill="none" xmlns="http://www.w3.org/2000/svg">
<path d="M4.07227 16.7812L8.7207 28.3828L13.3691 16.7812H15.8008V31H13.9258V25.4629L14.1016 19.4863L9.43359 31H7.99805L3.33984 19.5156L3.52539 25.4629V31H1.65039V16.7812H4.07227ZM23.2129 31.1953C21.7806 31.1953 20.6152 30.7266 19.7168 29.7891C18.8184 28.8451 18.3691 27.5853 18.3691 26.0098V25.6777C18.3691 24.6296 18.5677 23.6953 18.9648 22.875C19.3685 22.0482 19.9284 21.4036 20.6445 20.9414C21.3672 20.4727 22.1484 20.2383 22.9883 20.2383C24.362 20.2383 25.4297 20.6908 26.1914 21.5957C26.9531 22.5007 27.334 23.7962 27.334 25.4824V26.2344H20.1758C20.2018 27.276 20.5046 28.1191 21.084 28.7637C21.6699 29.4017 22.4121 29.7207 23.3105 29.7207C23.9486 29.7207 24.4889 29.5905 24.9316 29.3301C25.3743 29.0697 25.7617 28.7246 26.0938 28.2949L27.1973 29.1543C26.3118 30.515 24.9837 31.1953 23.2129 31.1953ZM22.9883 21.7227C22.2591 21.7227 21.6471 21.9896 21.1523 22.5234C20.6576 23.0508 20.3516 23.793 20.2344 24.75H25.5273V24.6133C25.4753 23.6953 25.2279 22.9857 24.7852 22.4844C24.3424 21.9766 23.7435 21.7227 22.9883 21.7227ZM31.1426 20.4336L31.2012 21.7617C32.0085 20.7461 33.0632 20.2383 34.3652 20.2383C36.5983 20.2383 37.7246 21.498 37.7441 24.0176V31H35.9375V24.0078C35.931 23.2461 35.7552 22.6829 35.4102 22.3184C35.0716 21.9538 34.541 21.7715 33.8184 21.7715C33.2324 21.7715 32.7181 21.9277 32.2754 22.2402C31.8327 22.5527 31.4876 22.9629 31.2402 23.4707V31H29.4336V20.4336H31.1426ZM46.9922 29.9551C46.2891 30.7819 45.2572 31.1953 43.8965 31.1953C42.7702 31.1953 41.9108 30.8698 41.3184 30.2188C40.7324 29.5612 40.4362 28.5911 40.4297 27.3086V20.4336H42.2363V27.2598C42.2363 28.8613 42.8874 29.6621 44.1895 29.6621C45.5697 29.6621 46.4876 29.1478 46.9434 28.1191V20.4336H48.75V31H47.0312L46.9922 29.9551Z" fill="white"/>
<circle cx="91.5" cy="24.5" r="24.25" stroke="white" stroke-width="0.5"/>
<circle cx="84" cy="17" r="3" fill="white"/>
<circle cx="84" cy="33" r="3" fill="white"/>
<circle cx="99" cy="17" r="3" fill="white"/>
<circle cx="99" cy="33" r="3" fill="white"/>
<circle cx="91" cy="25" r="2" fill="white"/>
</svg>
