<svg width="20" height="44" viewBox="0 0 20 44" fill="none" xmlns="http://www.w3.org/2000/svg">
<path fill-rule="evenodd" clip-rule="evenodd" d="M14.821 35.0205L10.9321 38.8249C10.6935 39.0584 10.3065 39.0584 10.0679 38.8249L6.17898 35.0205C5.94034 34.7871 5.94034 34.4085 6.17898 34.1751C6.41763 33.9416 6.80454 33.9416 7.04319 34.1751L10.3615 37.4213C10.406 37.4112 10.4524 37.4059 10.5 37.4059C10.5476 37.4059 10.594 37.4112 10.6385 37.4213L13.9568 34.1751C14.1955 33.9416 14.5824 33.9416 14.821 34.1751C15.0597 34.4085 15.0597 34.7871 14.821 35.0205Z" fill="white" fill-opacity="0.8"/>
<path fill-rule="evenodd" clip-rule="evenodd" d="M14.821 40.0205L10.9321 43.8249C10.6935 44.0584 10.3065 44.0584 10.0679 43.8249L6.17898 40.0205C5.94034 39.7871 5.94034 39.4085 6.17898 39.1751C6.41763 38.9416 6.80454 38.9416 7.04319 39.1751L10.3615 42.4213C10.406 42.4112 10.4524 42.4059 10.5 42.4059C10.5476 42.4059 10.594 42.4112 10.6385 42.4213L13.9568 39.1751C14.1955 38.9416 14.5824 38.9416 14.821 39.1751C15.0597 39.4085 15.0597 39.7871 14.821 40.0205Z" fill="white" fill-opacity="0.3"/>
<g clip-path="url(#clip0_35_255)">
<path d="M0 14.2999C0 11.8114 0 9.32297 0 6.83451C0 3.96051 1.70139 1.5071 4.30556 0.455634C5.10417 0.140195 5.90278 0 6.77083 0C8.92361 0 11.0764 0 13.2292 0C16.6319 0 19.4444 2.48846 19.9306 5.85315C19.9653 6.20363 20 6.55412 20 6.86956C20 11.7413 20 16.6482 20 21.5199C20 26.3567 16.8056 30.3522 12.1528 31.3336C6.49306 32.5253 1.66667 29.1606 0.347222 24.2187C0.104167 23.3425 0 22.4312 0 21.5199C0 19.1366 0 16.7183 0 14.2999ZM10.7639 12.3722C11.3889 12.3021 11.9792 12.232 12.5694 12.1269C13.5764 11.9516 14.5486 11.6011 15.4861 11.1455C15.9375 10.9002 16.3889 11.0404 16.5625 11.4609C16.7708 11.8815 16.5972 12.2671 16.1111 12.5124C16.0069 12.5825 15.9028 12.6176 15.7639 12.6877C13.5069 13.7391 11.1111 14.0896 8.61111 13.8443C6.94444 13.669 5.34722 13.2484 3.81944 12.5475C3.36806 12.3372 3.19444 11.9166 3.36806 11.496C3.54167 11.1105 3.95833 11.0053 4.44444 11.1455C5.34722 11.4609 6.25 11.7764 7.1875 12.0568C7.84722 12.232 8.50694 12.3021 9.20139 12.4073C9.20139 12.2671 9.20139 12.197 9.20139 12.1619C9.20139 11.4259 9.20139 10.6899 9.20139 9.9188C9.16667 9.81366 9.09722 9.81366 9.0625 9.81366C8.09028 9.56832 7.56944 8.90239 7.56944 7.88597C7.56944 7.2551 7.56944 6.58917 7.56944 5.95829C7.56944 5.29237 7.88194 4.73159 8.4375 4.41615C8.68056 4.27595 8.95833 4.20585 9.20139 4.10071C9.20139 3.29458 9.20139 2.45341 9.20139 1.54215C8.05556 1.5772 6.875 1.5071 5.76389 1.68234C3.50694 1.92768 1.5625 4.10071 1.5625 6.41393C1.52778 11.5661 1.52778 16.7533 1.5625 21.9055C1.5625 24.5341 2.67361 26.6371 4.6875 28.2493C6.73611 29.8966 9.09722 30.3172 11.6667 29.8966C15.4167 29.2657 18.3681 25.866 18.4722 22.0457C18.5069 20.5035 18.4722 18.9964 18.4722 17.4543C18.4722 13.8443 18.5069 10.2342 18.4722 6.58917C18.4375 3.78527 16.1458 1.54215 13.3681 1.5071C12.5694 1.5071 11.8056 1.5071 11.0069 1.5071C10.9375 1.5071 10.8681 1.5071 10.7639 1.54215C10.7639 2.38332 10.7639 3.22449 10.7639 4.06566C11.9792 4.3811 12.4306 4.97693 12.4306 6.20363C12.4306 6.69432 12.3958 7.185 12.4306 7.67568C12.5 8.83229 11.8056 9.63841 10.7986 9.81366L10.7639 9.84871C10.7639 10.6899 10.7639 11.496 10.7639 12.3722ZM10.9028 6.97471C10.9028 6.65927 10.9028 6.34383 10.9028 6.02839C10.9028 5.78305 10.7986 5.6078 10.5208 5.6078C10.1736 5.6078 9.82639 5.6078 9.47917 5.6078C9.23611 5.6078 9.09722 5.748 9.09722 5.99334C9.09722 6.62422 9.09722 7.29015 9.09722 7.92102C9.09722 8.16636 9.23611 8.34161 9.51389 8.30656C9.86111 8.30656 10.1736 8.30656 10.5208 8.30656C10.8333 8.30656 10.9375 8.20141 10.9722 7.88597C10.9375 7.57054 10.9028 7.2551 10.9028 6.97471Z" fill="white"/>
</g>
<defs>
<clipPath id="clip0_35_255">
<rect width="20" height="31.5789" fill="white"/>
</clipPath>
</defs>
</svg>
